# xmcd CD database file
#
# Track frame offsets:
#	150
#	10955
#	22400
#	35707
#	49607
#	65817
#	84195
#	97810
#	106082
#	117845
#	129362
#	145122
#	161482
#	179165
#	194987
#
# Disc length: 2824 seconds
#
# Revision: 3
# Processed by: cddbd v1.5.2PL0 Copyright (c) Steve Scherf et al.
# Submitted via: CDex 1.70beta2
#
DISCID=d20b060f
DTITLE=オムニバス - 廃盤ベストコレクション（8CD)　disc04
DYEAR=1987
DGENRE=JPop
TTITLE0=ザ・ピーナッツ - 情熱の花
TTITLE1=ザ・ピーナッツ - 恋のフーガ
TTITLE2=ザ・ピーナッツ - 若い季節
TTITLE3=布施明 - 霧の摩周湖
TTITLE4=丸山圭子 - どうぞこのまま
TTITLE5=岸洋子 - 夜明けのうた
TTITLE6=ペギー葉山 - 学生時代
TTITLE7=寺内タケシとバニーズ - 太陽野郎
TTITLE8=中村晃子 - 虹色の湖
TTITLE9=ダークダックス - 銀色の道
TTITLE10=伊東ゆかり - 恋のしずく
TTITLE11=倍賞千恵子 - さよならはダンスの後に
TTITLE12=中原美紗緒 - 夜は恋人
TTITLE13=千葉紘子 - 折鶴
TTITLE14=仲宗根美樹 - 川は流れる
EXTD=YEAR: 1987
EXTT0=
EXTT1=
EXTT2=
EXTT3=
EXTT4=
EXTT5=
EXTT6=
EXTT7=
EXTT8=
EXTT9=
EXTT10=
EXTT11=
EXTT12=
EXTT13=
EXTT14=
PLAYORDER=
